# xmcd
#
# Track frame offsets:
#	150
#	7700
#	25812
#	42857
#	56400
#	79892
#	102265
#	119547
#	148017
#	166350
#	180532
#	198760
#	216077
#	237175
#	255634
#
# Disc length: 3646 seconds
#
# Revision: 0
# Processed by: cddbd v1.4PL0 Copyright (c) Steve Scherf et al.
# Submitted via: EasyCDDAExtractor 5.0.2.1
#
DISCID=bf0e3c0f
DTITLE=Menace Records - Le Débarquement Offensive Act II
DYEAR=1999
DGENRE=Hip-Hop
TTITLE0=Intro - DJ Yahya
TTITLE1=Troisieme Type - Rimes 2 Combats
TTITLE2=Battle Mode Click - Oeil Pour Oeil
TTITLE3=255 Feat. Breece Lu - Humain
TTITLE4=Ness and Cité Feat. Sisi - Dans Quoi On Baigne
TTITLE5=La Cellule Feat. Oxmose - Pour Une Sexy Lady
TTITLE6=Katrofazz - L'Homme De L'Ombre
TTITLE7=Menace Records Soldats - Offensive Menace
TTITLE8=Nid 2 Serpent - Hip Hop Nostalgie
TTITLE9=Chrome Kapa - 22 LG 24 Carats
TTITLE10=Kevin - La Rage Dans Mes Poings
TTITLE11=Kiproco Feat. Kenly - Chansonnette Honnête
TTITLE12=Kenny Dog Feat. Sisi - J'Peux Pas Me Permettre De Foirer
TTITLE13=Loudness - Instinct De Survie
TTITLE14=Funkdakika - Des Cas Dansent
EXTD=
EXTT0=
EXTT1=
EXTT2=
EXTT3=
EXTT4=
EXTT5=
EXTT6=
EXTT7=
EXTT8=
EXTT9=
EXTT10=
EXTT11=
EXTT12=
EXTT13=
EXTT14=
PLAYORDER=
